<mxfile host="app.diagrams.net" modified="2021-08-19T05:54:58.390Z" agent="5.0 (Windows)" etag="axwHISVqsolzBRUYQfKC" version="14.7.8" type="github">
  <diagram id="C5RBs43oDa-KdzZeNtuy" name="Page-1">
    <mxGraphModel dx="2048" dy="1100" grid="1" gridSize="10" guides="1" tooltips="1" connect="1" arrows="1" fold="1" page="1" pageScale="1" pageWidth="827" pageHeight="1169" math="0" shadow="0">
      <root>
        <mxCell id="WIyWlLk6GJQsqaUBKTNV-0" />
        <mxCell id="WIyWlLk6GJQsqaUBKTNV-1" parent="WIyWlLk6GJQsqaUBKTNV-0" />
        <mxCell id="WIyWlLk6GJQsqaUBKTNV-2" value="" style="rounded=0;html=1;jettySize=auto;orthogonalLoop=1;fontSize=11;endArrow=block;endFill=0;endSize=8;strokeWidth=1;shadow=0;labelBackgroundColor=none;edgeStyle=orthogonalEdgeStyle;" parent="WIyWlLk6GJQsqaUBKTNV-1" target="WIyWlLk6GJQsqaUBKTNV-6" edge="1">
          <mxGeometry relative="1" as="geometry">
            <mxPoint x="176.0666666666666" y="120" as="sourcePoint" />
          </mxGeometry>
        </mxCell>
        <mxCell id="WIyWlLk6GJQsqaUBKTNV-4" value="Yes" style="rounded=0;html=1;jettySize=auto;orthogonalLoop=1;fontSize=11;endArrow=block;endFill=0;endSize=8;strokeWidth=1;shadow=0;labelBackgroundColor=none;edgeStyle=orthogonalEdgeStyle;entryX=0.5;entryY=0;entryDx=0;entryDy=0;entryPerimeter=0;" parent="WIyWlLk6GJQsqaUBKTNV-1" source="WIyWlLk6GJQsqaUBKTNV-6" target="Tm1cLc5rGvtX3yt5SB6X-1" edge="1">
          <mxGeometry y="20" relative="1" as="geometry">
            <mxPoint as="offset" />
            <mxPoint x="176" y="310" as="targetPoint" />
          </mxGeometry>
        </mxCell>
        <mxCell id="WIyWlLk6GJQsqaUBKTNV-5" value="No" style="edgeStyle=orthogonalEdgeStyle;rounded=0;html=1;jettySize=auto;orthogonalLoop=1;fontSize=11;endArrow=block;endFill=0;endSize=8;strokeWidth=1;shadow=0;labelBackgroundColor=none;" parent="WIyWlLk6GJQsqaUBKTNV-1" source="WIyWlLk6GJQsqaUBKTNV-6" target="Tm1cLc5rGvtX3yt5SB6X-18" edge="1">
          <mxGeometry y="10" relative="1" as="geometry">
            <mxPoint as="offset" />
            <mxPoint x="236" y="490" as="targetPoint" />
            <Array as="points">
              <mxPoint x="306" y="219" />
              <mxPoint x="306" y="484" />
            </Array>
          </mxGeometry>
        </mxCell>
        <mxCell id="WIyWlLk6GJQsqaUBKTNV-6" value="Create Master Voucher" style="rhombus;whiteSpace=wrap;html=1;shadow=0;fontFamily=Helvetica;fontSize=12;align=center;strokeWidth=1;spacing=6;spacingTop=-4;" parent="WIyWlLk6GJQsqaUBKTNV-1" vertex="1">
          <mxGeometry x="119" y="169" width="113" height="100" as="geometry" />
        </mxCell>
        <mxCell id="Tm1cLc5rGvtX3yt5SB6X-1" value="DATA BASE" style="shape=cylinder3;whiteSpace=wrap;html=1;boundedLbl=1;backgroundOutline=1;size=15;" vertex="1" parent="WIyWlLk6GJQsqaUBKTNV-1">
          <mxGeometry x="146" y="330" width="60" height="80" as="geometry" />
        </mxCell>
        <mxCell id="Tm1cLc5rGvtX3yt5SB6X-4" value="" style="rounded=0;html=1;jettySize=auto;orthogonalLoop=1;fontSize=11;endArrow=block;endFill=0;endSize=8;strokeWidth=1;shadow=0;labelBackgroundColor=none;edgeStyle=orthogonalEdgeStyle;exitX=0.5;exitY=1;exitDx=0;exitDy=0;exitPerimeter=0;" edge="1" parent="WIyWlLk6GJQsqaUBKTNV-1">
          <mxGeometry relative="1" as="geometry">
            <mxPoint x="176" y="410" as="sourcePoint" />
            <mxPoint x="176" y="460" as="targetPoint" />
          </mxGeometry>
        </mxCell>
        <mxCell id="Tm1cLc5rGvtX3yt5SB6X-7" value="" style="rounded=0;html=1;jettySize=auto;orthogonalLoop=1;fontSize=11;endArrow=block;endFill=0;endSize=8;strokeWidth=1;shadow=0;labelBackgroundColor=none;edgeStyle=orthogonalEdgeStyle;" edge="1" parent="WIyWlLk6GJQsqaUBKTNV-1" target="Tm1cLc5rGvtX3yt5SB6X-11">
          <mxGeometry relative="1" as="geometry">
            <mxPoint x="511" y="120" as="sourcePoint" />
          </mxGeometry>
        </mxCell>
        <mxCell id="Tm1cLc5rGvtX3yt5SB6X-9" value="Yes" style="rounded=0;html=1;jettySize=auto;orthogonalLoop=1;fontSize=11;endArrow=block;endFill=0;endSize=8;strokeWidth=1;shadow=0;labelBackgroundColor=none;edgeStyle=orthogonalEdgeStyle;entryX=0.5;entryY=0;entryDx=0;entryDy=0;entryPerimeter=0;" edge="1" parent="WIyWlLk6GJQsqaUBKTNV-1" source="Tm1cLc5rGvtX3yt5SB6X-11" target="Tm1cLc5rGvtX3yt5SB6X-13">
          <mxGeometry y="20" relative="1" as="geometry">
            <mxPoint as="offset" />
            <mxPoint x="511" y="310" as="targetPoint" />
          </mxGeometry>
        </mxCell>
        <mxCell id="Tm1cLc5rGvtX3yt5SB6X-10" value="No" style="edgeStyle=orthogonalEdgeStyle;rounded=0;html=1;jettySize=auto;orthogonalLoop=1;fontSize=11;endArrow=block;endFill=0;endSize=8;strokeWidth=1;shadow=0;labelBackgroundColor=none;entryX=0.992;entryY=0.55;entryDx=0;entryDy=0;entryPerimeter=0;" edge="1" parent="WIyWlLk6GJQsqaUBKTNV-1" source="Tm1cLc5rGvtX3yt5SB6X-11">
          <mxGeometry y="10" relative="1" as="geometry">
            <mxPoint as="offset" />
            <mxPoint x="570.04" y="480" as="targetPoint" />
            <Array as="points">
              <mxPoint x="641" y="219" />
              <mxPoint x="641" y="480" />
            </Array>
          </mxGeometry>
        </mxCell>
        <mxCell id="Tm1cLc5rGvtX3yt5SB6X-11" value="Memilih Voucher dan type payment " style="rhombus;whiteSpace=wrap;html=1;shadow=0;fontFamily=Helvetica;fontSize=12;align=center;strokeWidth=1;spacing=6;spacingTop=-4;" vertex="1" parent="WIyWlLk6GJQsqaUBKTNV-1">
          <mxGeometry x="456" y="169" width="109" height="100" as="geometry" />
        </mxCell>
        <mxCell id="Tm1cLc5rGvtX3yt5SB6X-13" value="DATA BASE" style="shape=cylinder3;whiteSpace=wrap;html=1;boundedLbl=1;backgroundOutline=1;size=15;" vertex="1" parent="WIyWlLk6GJQsqaUBKTNV-1">
          <mxGeometry x="481" y="330" width="60" height="80" as="geometry" />
        </mxCell>
        <mxCell id="Tm1cLc5rGvtX3yt5SB6X-14" value="" style="rounded=0;html=1;jettySize=auto;orthogonalLoop=1;fontSize=11;endArrow=block;endFill=0;endSize=8;strokeWidth=1;shadow=0;labelBackgroundColor=none;edgeStyle=orthogonalEdgeStyle;entryX=0.5;entryY=0;entryDx=0;entryDy=0;exitX=0.5;exitY=1;exitDx=0;exitDy=0;exitPerimeter=0;" edge="1" parent="WIyWlLk6GJQsqaUBKTNV-1">
          <mxGeometry relative="1" as="geometry">
            <mxPoint x="511" y="410" as="sourcePoint" />
            <mxPoint x="511" y="458" as="targetPoint" />
          </mxGeometry>
        </mxCell>
        <mxCell id="Tm1cLc5rGvtX3yt5SB6X-17" value="START" style="ellipse;whiteSpace=wrap;html=1;" vertex="1" parent="WIyWlLk6GJQsqaUBKTNV-1">
          <mxGeometry x="115.5" y="70" width="120" height="50" as="geometry" />
        </mxCell>
        <mxCell id="Tm1cLc5rGvtX3yt5SB6X-18" value="END" style="ellipse;whiteSpace=wrap;html=1;" vertex="1" parent="WIyWlLk6GJQsqaUBKTNV-1">
          <mxGeometry x="115.5" y="459" width="120" height="50" as="geometry" />
        </mxCell>
        <mxCell id="Tm1cLc5rGvtX3yt5SB6X-19" value="PROSES PEMBUATAN MASTER VOUCHER" style="text;html=1;strokeColor=none;fillColor=none;align=center;verticalAlign=middle;whiteSpace=wrap;rounded=0;fontStyle=1;fontColor=#0D0100;" vertex="1" parent="WIyWlLk6GJQsqaUBKTNV-1">
          <mxGeometry x="86" y="30" width="180" height="30" as="geometry" />
        </mxCell>
        <mxCell id="Tm1cLc5rGvtX3yt5SB6X-20" value="START" style="ellipse;whiteSpace=wrap;html=1;" vertex="1" parent="WIyWlLk6GJQsqaUBKTNV-1">
          <mxGeometry x="451.5" y="74" width="120" height="50" as="geometry" />
        </mxCell>
        <mxCell id="Tm1cLc5rGvtX3yt5SB6X-21" value="END" style="ellipse;whiteSpace=wrap;html=1;" vertex="1" parent="WIyWlLk6GJQsqaUBKTNV-1">
          <mxGeometry x="451.5" y="459" width="120" height="50" as="geometry" />
        </mxCell>
        <mxCell id="Tm1cLc5rGvtX3yt5SB6X-22" value="PROSES VALIDASI VOUCHER" style="text;html=1;strokeColor=none;fillColor=none;align=center;verticalAlign=middle;whiteSpace=wrap;rounded=0;fontStyle=1;fontColor=#0D0100;" vertex="1" parent="WIyWlLk6GJQsqaUBKTNV-1">
          <mxGeometry x="430" y="30" width="181" height="30" as="geometry" />
        </mxCell>
        <mxCell id="Tm1cLc5rGvtX3yt5SB6X-24" value="" style="rounded=0;html=1;jettySize=auto;orthogonalLoop=1;fontSize=11;endArrow=block;endFill=0;endSize=8;strokeWidth=1;shadow=0;labelBackgroundColor=none;edgeStyle=orthogonalEdgeStyle;exitX=0.5;exitY=1;exitDx=0;exitDy=0;entryX=0.5;entryY=0;entryDx=0;entryDy=0;" edge="1" parent="WIyWlLk6GJQsqaUBKTNV-1" target="Tm1cLc5rGvtX3yt5SB6X-33" source="Tm1cLc5rGvtX3yt5SB6X-30">
          <mxGeometry relative="1" as="geometry">
            <mxPoint x="602.5" y="669" as="sourcePoint" />
            <mxPoint x="370" y="700" as="targetPoint" />
            <Array as="points" />
          </mxGeometry>
        </mxCell>
        <mxCell id="Tm1cLc5rGvtX3yt5SB6X-26" value="No" style="edgeStyle=orthogonalEdgeStyle;rounded=0;html=1;jettySize=auto;orthogonalLoop=1;fontSize=11;endArrow=block;endFill=0;endSize=8;strokeWidth=1;shadow=0;labelBackgroundColor=none;entryX=1;entryY=0.5;entryDx=0;entryDy=0;exitX=1;exitY=0.5;exitDx=0;exitDy=0;" edge="1" parent="WIyWlLk6GJQsqaUBKTNV-1" source="Tm1cLc5rGvtX3yt5SB6X-34" target="Tm1cLc5rGvtX3yt5SB6X-31">
          <mxGeometry y="10" relative="1" as="geometry">
            <mxPoint as="offset" />
            <mxPoint x="432.03999999999996" y="999" as="targetPoint" />
            <Array as="points">
              <mxPoint x="503" y="840" />
              <mxPoint x="503" y="1070" />
            </Array>
            <mxPoint x="430" y="840" as="sourcePoint" />
          </mxGeometry>
        </mxCell>
        <mxCell id="Tm1cLc5rGvtX3yt5SB6X-29" value="" style="rounded=0;html=1;jettySize=auto;orthogonalLoop=1;fontSize=11;endArrow=block;endFill=0;endSize=8;strokeWidth=1;shadow=0;labelBackgroundColor=none;edgeStyle=orthogonalEdgeStyle;" edge="1" parent="WIyWlLk6GJQsqaUBKTNV-1" target="Tm1cLc5rGvtX3yt5SB6X-31">
          <mxGeometry relative="1" as="geometry">
            <mxPoint x="371" y="990" as="sourcePoint" />
            <mxPoint x="373" y="977" as="targetPoint" />
          </mxGeometry>
        </mxCell>
        <mxCell id="Tm1cLc5rGvtX3yt5SB6X-30" value="START" style="ellipse;whiteSpace=wrap;html=1;" vertex="1" parent="WIyWlLk6GJQsqaUBKTNV-1">
          <mxGeometry x="309.5" y="593" width="120" height="50" as="geometry" />
        </mxCell>
        <mxCell id="Tm1cLc5rGvtX3yt5SB6X-31" value="END" style="ellipse;whiteSpace=wrap;html=1;" vertex="1" parent="WIyWlLk6GJQsqaUBKTNV-1">
          <mxGeometry x="310.5" y="1045" width="120" height="50" as="geometry" />
        </mxCell>
        <mxCell id="Tm1cLc5rGvtX3yt5SB6X-32" value="PROSES PENCAIRAN VOUCHER" style="text;html=1;strokeColor=none;fillColor=none;align=center;verticalAlign=middle;whiteSpace=wrap;rounded=0;fontStyle=1;fontColor=#0D0100;" vertex="1" parent="WIyWlLk6GJQsqaUBKTNV-1">
          <mxGeometry x="276" y="549" width="181" height="30" as="geometry" />
        </mxCell>
        <mxCell id="Tm1cLc5rGvtX3yt5SB6X-33" value="Customer melakukan transaksi " style="rounded=0;whiteSpace=wrap;html=1;fontColor=#0D0100;" vertex="1" parent="WIyWlLk6GJQsqaUBKTNV-1">
          <mxGeometry x="310" y="688" width="120" height="60" as="geometry" />
        </mxCell>
        <mxCell id="Tm1cLc5rGvtX3yt5SB6X-34" value="Payment Menggunakan Voucher" style="rhombus;whiteSpace=wrap;html=1;shadow=0;fontFamily=Helvetica;fontSize=12;align=center;strokeWidth=1;spacing=6;spacingTop=-4;" vertex="1" parent="WIyWlLk6GJQsqaUBKTNV-1">
          <mxGeometry x="313" y="790" width="113" height="100" as="geometry" />
        </mxCell>
        <mxCell id="Tm1cLc5rGvtX3yt5SB6X-36" value="" style="rounded=0;html=1;jettySize=auto;orthogonalLoop=1;fontSize=11;endArrow=block;endFill=0;endSize=8;strokeWidth=1;shadow=0;labelBackgroundColor=none;edgeStyle=orthogonalEdgeStyle;entryX=0.5;entryY=0;entryDx=0;entryDy=0;" edge="1" parent="WIyWlLk6GJQsqaUBKTNV-1" source="Tm1cLc5rGvtX3yt5SB6X-33" target="Tm1cLc5rGvtX3yt5SB6X-34">
          <mxGeometry relative="1" as="geometry">
            <mxPoint x="370" y="750" as="sourcePoint" />
            <mxPoint x="380" y="698" as="targetPoint" />
            <Array as="points" />
          </mxGeometry>
        </mxCell>
        <mxCell id="Tm1cLc5rGvtX3yt5SB6X-37" value="Memilih Voucher" style="shape=parallelogram;perimeter=parallelogramPerimeter;whiteSpace=wrap;html=1;fixedSize=1;fontColor=#0D0100;" vertex="1" parent="WIyWlLk6GJQsqaUBKTNV-1">
          <mxGeometry x="309.5" y="930" width="120" height="60" as="geometry" />
        </mxCell>
        <mxCell id="Tm1cLc5rGvtX3yt5SB6X-38" value="" style="rounded=0;html=1;jettySize=auto;orthogonalLoop=1;fontSize=11;endArrow=block;endFill=0;endSize=8;strokeWidth=1;shadow=0;labelBackgroundColor=none;edgeStyle=orthogonalEdgeStyle;entryX=0.5;entryY=0;entryDx=0;entryDy=0;exitX=0.5;exitY=1;exitDx=0;exitDy=0;" edge="1" parent="WIyWlLk6GJQsqaUBKTNV-1" source="Tm1cLc5rGvtX3yt5SB6X-34" target="Tm1cLc5rGvtX3yt5SB6X-37">
          <mxGeometry relative="1" as="geometry">
            <mxPoint x="380" y="797" as="sourcePoint" />
            <mxPoint x="379.5" y="839" as="targetPoint" />
            <Array as="points" />
          </mxGeometry>
        </mxCell>
        <mxCell id="Tm1cLc5rGvtX3yt5SB6X-39" value="Yes" style="text;html=1;strokeColor=none;fillColor=none;align=center;verticalAlign=middle;whiteSpace=wrap;rounded=0;fontColor=#0D0100;" vertex="1" parent="WIyWlLk6GJQsqaUBKTNV-1">
          <mxGeometry x="373" y="896" width="40" height="20" as="geometry" />
        </mxCell>
      </root>
    </mxGraphModel>
  </diagram>
</mxfile>
